<?xml version="1.0" standalone="no"?>
<!DOCTYPE svg PUBLIC "-//W3C//DTD SVG 20010904//EN"
 "http://www.w3.org/TR/2001/REC-SVG-20010904/DTD/svg10.dtd">
<svg version="1.0" xmlns="http://www.w3.org/2000/svg"
 width="591.000000pt" height="591.000000pt" viewBox="0 0 591.000000 591.000000"
 preserveAspectRatio="xMidYMid meet">

<g transform="translate(0.000000,591.000000) scale(0.100000,-0.100000)"
fill="#000000" stroke="none">
<path d="M2013 3970 c0 -25 2 -35 4 -22 2 12 2 32 0 45 -2 12 -4 2 -4 -23z"/>
<path d="M2526 3997 c3 -10 9 -15 12 -12 3 3 0 11 -7 18 -10 9 -11 8 -5 -6z"/>
<path d="M2550 3973 c0 -24 2 -43 4 -43 8 0 12 60 4 72 -4 8 -8 -4 -8 -29z"/>
<path d="M3013 3970 c0 -25 2 -35 4 -22 2 12 2 32 0 45 -2 12 -4 2 -4 -23z"/>
<path d="M3723 3970 c0 -25 2 -35 4 -22 2 12 2 32 0 45 -2 12 -4 2 -4 -23z"/>
<path d="M2342 3970 c0 -19 2 -27 5 -17 2 9 2 25 0 35 -3 9 -5 1 -5 -18z"/>
<path d="M2042 3970 c0 -14 2 -19 5 -12 2 6 2 18 0 25 -3 6 -5 1 -5 -13z"/>
<path d="M2182 3960 c0 -19 2 -27 5 -17 2 9 2 25 0 35 -3 9 -5 1 -5 -18z"/>
<path d="M2270 3960 c0 -16 2 -30 4 -30 2 0 6 14 8 30 3 17 1 30 -4 30 -4 0
-8 -13 -8 -30z"/>
<path d="M2592 3960 c0 -19 2 -27 5 -17 2 9 2 25 0 35 -3 9 -5 1 -5 -18z"/>
<path d="M2655 3960 c0 -15 3 -26 8 -23 4 2 7 13 7 23 0 10 -3 21 -7 23 -5 3
-8 -8 -8 -23z"/>
<path d="M2755 3960 c0 -15 3 -26 8 -23 4 2 7 13 7 23 0 10 -3 21 -7 23 -5 3
-8 -8 -8 -23z"/>
<path d="M2821 3974 c0 -11 3 -14 6 -6 3 7 2 16 -1 19 -3 4 -6 -2 -5 -13z"/>
<path d="M2985 3960 c0 -15 3 -26 8 -23 4 2 7 13 7 23 0 10 -3 21 -7 23 -5 3
-8 -8 -8 -23z"/>
<path d="M3107 3983 c-9 -9 -9 -41 1 -46 4 -3 7 8 7 24 0 16 0 29 -1 29 0 0
-4 -3 -7 -7z"/>
<path d="M3452 3960 c0 -19 2 -27 5 -17 2 9 2 25 0 35 -3 9 -5 1 -5 -18z"/>
<path d="M3492 3960 c0 -19 2 -27 5 -17 2 9 2 25 0 35 -3 9 -5 1 -5 -18z"/>
<path d="M3532 3960 c0 -19 2 -27 5 -17 2 9 2 25 0 35 -3 9 -5 1 -5 -18z"/>
<path d="M3842 3960 c0 -19 2 -27 5 -17 2 9 2 25 0 35 -3 9 -5 1 -5 -18z"/>
<path d="M3863 3975 c-3 -9 -3 -18 -1 -21 3 -3 8 4 11 16 6 23 -1 27 -10 5z"/>
<path d="M2110 3961 c0 -11 4 -22 9 -25 4 -3 6 6 3 19 -5 30 -12 33 -12 6z"/>
<path d="M2922 3955 c0 -16 2 -22 5 -12 2 9 2 23 0 30 -3 6 -5 -1 -5 -18z"/>
<path d="M3380 3961 c0 -11 4 -22 9 -25 4 -3 6 6 3 19 -5 30 -12 33 -12 6z"/>
<path d="M3930 3961 c0 -11 4 -22 9 -25 4 -3 6 6 3 19 -5 30 -12 33 -12 6z"/>
<path d="M2408 3963 c7 -3 16 -2 19 1 4 3 -2 6 -13 5 -11 0 -14 -3 -6 -6z"/>
<path d="M2488 3963 c6 -2 18 -2 25 0 6 3 1 5 -13 5 -14 0 -19 -2 -12 -5z"/>
<path d="M2785 3949 c-4 -6 -5 -12 -2 -15 2 -3 7 2 10 11 7 17 1 20 -8 4z"/>
<path d="M1910 3205 l0 -545 155 0 155 0 0 260 c0 143 3 260 8 260 4 0 108
-117 232 -261 l225 -260 460 4 c503 4 515 6 634 67 108 56 175 139 213 264 32
102 32 319 1 421 -39 123 -106 207 -212 263 -115 62 -139 64 -648 69 l-463 5
0 -267 c0 -163 -4 -264 -9 -260 -6 3 -109 122 -231 265 l-221 260 -150 0 -149
0 0 -545z m1612 275 c50 -14 97 -55 119 -105 27 -58 27 -282 0 -340 -37 -83
-102 -115 -233 -115 l-78 0 0 285 0 285 78 0 c42 0 94 -5 114 -10z"/>
<path d="M2400 2441 c0 -63 4 -112 10 -116 6 -4 10 13 10 44 0 27 4 62 10 76
8 22 15 26 42 23 l33 -3 3 -72 c2 -40 7 -73 12 -73 15 0 12 144 -2 158 -15 15
-53 16 -79 2 -17 -10 -19 -7 -19 30 0 22 -4 40 -10 40 -6 0 -10 -43 -10 -109z"/>
<path d="M1910 2436 c0 -59 4 -108 10 -111 6 -4 10 25 10 79 0 47 3 86 8 86 4
-1 35 -39 70 -86 35 -46 67 -82 72 -79 6 4 10 53 10 111 0 84 -3 104 -15 104
-11 0 -15 -18 -17 -81 l-3 -81 -59 81 c-33 45 -66 81 -73 81 -10 0 -13 -25
-13 -104z"/>
<path d="M2320 2516 c0 -16 -6 -26 -15 -26 -8 0 -15 -4 -15 -10 0 -5 7 -10 15
-10 11 0 15 -17 17 -72 3 -67 5 -73 26 -76 12 -2 22 1 22 7 0 6 -7 11 -15 11
-12 0 -15 14 -15 65 0 51 3 65 15 65 8 0 15 5 15 10 0 6 -7 10 -15 10 -8 0
-15 9 -15 19 0 11 -4 23 -10 26 -6 4 -10 -5 -10 -19z"/>
<path d="M3000 2431 l0 -111 33 0 c55 1 111 18 130 41 26 33 23 111 -7 145
-20 24 -32 28 -90 32 l-66 4 0 -111z m127 74 c28 -20 39 -76 23 -115 -12 -30
-55 -50 -107 -50 -22 0 -23 3 -23 90 l0 90 43 0 c23 0 52 -7 64 -15z"/>
<path d="M4038 2534 c-5 -4 -8 -15 -8 -25 0 -9 -6 -20 -12 -22 -10 -4 -10 -7
-1 -14 7 -5 13 -39 15 -78 3 -64 5 -70 26 -73 12 -2 22 1 22 7 0 6 -7 11 -15
11 -12 0 -15 14 -15 65 0 51 3 65 15 65 8 0 15 5 15 10 0 6 -6 10 -14 10 -8 0
-16 12 -18 26 -2 14 -6 22 -10 18z"/>
<path d="M2152 2478 c-15 -15 -16 -38 -2 -38 6 0 10 4 10 10 0 5 9 14 20 20
25 14 60 -3 60 -29 0 -14 -10 -20 -40 -24 -50 -6 -70 -22 -70 -53 0 -35 41
-52 83 -36 21 8 33 9 35 2 5 -13 32 -13 32 0 0 6 -4 10 -10 10 -6 0 -10 28
-10 63 0 73 -10 87 -60 87 -20 0 -41 -5 -48 -12z m88 -92 c0 -22 -29 -46 -56
-46 -32 0 -43 28 -19 46 25 19 75 18 75 0z"/>
<path d="M2586 2468 c-18 -25 -11 -41 7 -17 7 8 19 18 27 21 24 9 60 -10 60
-30 0 -15 -9 -21 -40 -25 -49 -6 -70 -22 -70 -51 0 -44 45 -60 87 -31 19 13
22 13 27 0 6 -17 36 -21 36 -5 0 6 -4 10 -10 10 -6 0 -10 26 -10 59 0 70 -15
91 -65 91 -24 0 -39 -7 -49 -22z m94 -80 c0 -20 -32 -48 -57 -48 -28 0 -40 24
-23 45 15 18 80 20 80 3z"/>
<path d="M2750 2408 c0 -52 4 -88 10 -88 6 0 10 28 10 63 0 70 10 87 51 87 33
0 39 -14 39 -91 0 -33 4 -59 10 -59 13 0 13 111 0 144 -8 21 -16 26 -43 26
-18 0 -39 -6 -45 -12 -10 -10 -15 -10 -22 2 -7 10 -10 -14 -10 -72z"/>
<path d="M3220 2427 c0 -95 39 -132 97 -92 20 14 22 13 26 -2 3 -10 5 21 6 70
1 102 -17 119 -21 20 -3 -64 -4 -68 -31 -78 -40 -14 -57 12 -57 87 0 32 -4 58
-10 58 -6 0 -10 -28 -10 -63z"/>
<path d="M3400 2405 c0 -50 4 -85 10 -85 6 0 10 26 10 58 0 68 15 95 51 90 22
-3 24 -8 27 -68 4 -80 22 -107 22 -32 0 70 16 102 51 102 33 0 39 -14 39 -91
0 -38 4 -58 10 -54 13 8 13 106 0 139 -10 28 -45 35 -80 16 -14 -8 -25 -7 -40
2 -15 10 -27 10 -50 1 -16 -6 -30 -7 -30 -2 0 5 -4 9 -10 9 -6 0 -10 -35 -10
-85z"/>
<path d="M3684 2469 c-29 -32 -26 -105 5 -130 32 -26 67 -24 96 6 32 31 34 96
5 125 -27 27 -81 26 -106 -1z m94 -17 c31 -39 3 -112 -43 -112 -31 0 -47 22
-48 66 -2 62 55 90 91 46z"/>
<path d="M3850 2406 c0 -51 4 -86 10 -86 6 0 10 28 10 63 0 70 10 87 51 87 33
0 39 -14 39 -91 0 -33 4 -59 10 -59 13 0 13 126 0 151 -12 21 -74 27 -85 9 -5
-8 -11 -7 -21 1 -12 10 -14 -2 -14 -75z"/>
</g>
</svg>
